<svg xmlns="http://www.w3.org/2000/svg" xml:space="preserve" viewBox="0 0 97.9 40">
  <path fill="#f08d21" d="M9.9 0h1.8v12.7c0 1 0 1.8-.2 2.5-.6 2.3-2.8 3.2-5.5 3.2-2.6 0-4.9-.9-5.5-3a8 8 0 0 1-.3-2.7v-1.4h3.6v2.2c0 1.2.7 1.9 2.2 1.9 1.3 0 2-.7 2-2.1V1.9A2 2 0 0 1 9.9 0m15.5 12.5c0 2.5-.6 4-1.8 4.8a8.2 8.2 0 0 1-4.2 1.1c-1.5 0-2.8-.3-4-1.1-1.3-.8-1.9-2.4-1.9-4.8V4h3.6v9.3c0 1.5.8 2.3 2.4 2.3 1.6 0 2.4-.8 2.4-2.3V5.8c0-1.2.5-1.8 1.7-1.8h1.8v8.5zm11.8 5.7c-1.2-.1-1.8-.7-1.8-1.8V9.1c0-1.4-.8-2.2-2.4-2.2-1.6 0-2.4.8-2.4 2.2v9H27V10c0-4 2-6 6-6s6 2 6 6v8.3h-1.8zM42.5 0c1.2 0 1.7.6 1.7 1.7v1h-3.5V0h1.8zm0 4c1.1 0 1.7.6 1.7 1.8v12.4h-3.5V4h1.8zM59 11.2c0 4.8-2.2 7.3-6.5 7.3s-6.4-2.5-6.4-7.3c0-5 2.1-7.4 6.4-7.4 4.3 0 6.5 2.5 6.5 7.4m-9.3 0c0 2.7 1 4.1 2.8 4.1 1.8 0 2.7-1.4 2.7-4.2 0-2.8-.9-4.2-2.7-4.2-1.9 0-2.8 1.5-2.8 4.3m11-.3c0-4.6 2.5-6.9 7.2-6.9h.5v3.7h-1.2c-2 0-3 1-3 3.1v7.4h-3.5v-7.3z"/>
  <path fill="#10a7b6" d="M0 20.9c0-1.1.5-1.7 1.6-1.7h9.8v2.7H3.2v3.4h6v1c.1 1.1-.4 1.6-1.6 1.6H3.2V32h8.2v3H0V21zm21.8 14c-1 0-1.6-.6-1.6-1.5V27c0-1.3-.7-1.9-2-1.9-1.4 0-2.1.6-2.2 1.9v7.8h-3v-7.2c0-3.5 1.7-5.2 5.2-5.2s5.2 1.7 5.1 5.2V35h-1.5zm2.8-6.1c0-4 1.8-6.1 5.6-6.2 3.8 0 5.8 1.8 5.8 5.5v7.2c0 3-2 4.6-5.9 4.7-2.8 0-4.5-1.3-5.2-3.9h3.4c.2.9.9 1.3 2.2 1.3 1.6 0 2.4-1 2.4-2.8v-1.3a4 4 0 0 1-3.5 1.8c-3.2 0-4.8-2-4.8-6.3m8.3 0c0-2.4-.8-3.6-2.6-3.6-1.7 0-2.6 1.2-2.6 3.7 0 2.4 1 3.5 2.6 3.5s2.5-1.1 2.6-3.5m6.6-9.7c1 0 1.5.5 1.4 1.5v.9h-3v-2.4h1.6zm0 3.5c1 0 1.4.5 1.4 1.5v10.7h-3V22.7h1.6zm12 12.2c-1 0-1.5-.6-1.5-1.5V27c0-1.3-.8-1.9-2.1-1.9-1.4 0-2 .6-2.1 1.9v7.8h-3.1v-7.2c0-3.5 1.7-5.2 5.2-5.2s5.2 1.7 5.2 5.2V35h-1.6zm8.5.3c-3.8-.1-5.6-2.3-5.6-6.4 0-4.2 1.8-6.3 5.6-6.3s5.7 2.4 5.4 7.2h-7.9c.1 1.8 1 2.8 2.4 2.8.8 0 1.4-.3 2-.9.3-.3.6-.4 1-.4h2.3c-.6 2.5-2.3 4-5.3 4m-2.3-7.7h4.6c-.2-1.6-1-2.5-2.3-2.5-1.3 0-2 .9-2.3 2.5m14.7 7.7c-3.7-.1-5.5-2.3-5.5-6.4 0-4.2 1.8-6.3 5.6-6.3s5.7 2.4 5.4 7.2H70c.1 1.8 1 2.8 2.4 2.8.8 0 1.4-.3 2-.9.3-.3.7-.4 1-.4h2.3c-.6 2.5-2.3 4-5.3 4M70 27.5h4.6c-.2-1.6-1-2.5-2.3-2.5-1.3 0-2 .9-2.3 2.5m9.3 1.1c0-4 2.2-6 6.2-6h.5V26h-1c-1.8 0-2.6.9-2.6 2.6V35h-3.1v-6.3zm13.5 4.1c1.3 0 1.9-.4 1.9-1.2 0-.6-1-1.1-3.2-1.5-2.7-.5-4-1.7-4-3.6 0-2.6 2-3.9 4.8-3.9 1.6 0 2.8.3 3.7 1 1 .7 1.4 1.7 1.5 3h-2c-.7 0-1.1-.3-1.3-.8-.2-.5-.8-.8-1.9-.8-1.2 0-1.8.3-1.8 1 0 .6.8 1 2.4 1.4 2 .4 3.5 1 4.1 1.5.6.6.9 1.4.9 2.2 0 3-2.4 4.1-5.6 4.1-1.7 0-3-.4-3.8-1-1-.8-1.4-1.8-1.4-3.2h3.1c0 1.3 1 1.8 2.5 1.8"/>
</svg>
